<?xml version="1.0" encoding="iso-8859-1"?>
<!-- Generator: Adobe Illustrator 19.0.0, SVG Export Plug-In . SVG Version: 6.00 Build 0)  -->
<svg version="1.1" id="Layer_1" xmlns="http://www.w3.org/2000/svg" xmlns:xlink="http://www.w3.org/1999/xlink" x="0px" y="0px"
	 viewBox="0 0 512 512" style="enable-background:new 0 0 512 512;" xml:space="preserve">
<g transform="translate(1)">
	<path style="fill:#FFE100;" d="M135.366,494.933c0,0,59.733,8.533,119.467,8.533s119.467-8.533,119.467-8.533
		c0-72.533-34.133-213.333-34.133-213.333c0-36.693,7.68-75.947,17.067-102.4c0,0,17.92,41.813,23.893,59.733
		c5.973,17.92,44.373,230.4,44.373,230.4l59.733-8.533c-20.48-98.987-66.56-366.08-85.333-384c-7.68-7.68-35.84-17.92-59.733-25.6
		l-12.8,69.973c-5.973,32.427-21.333,62.293-46.08,83.627c-8.533,7.68-17.92,13.653-26.453,17.067
		c-8.533-3.413-17.92-9.387-26.453-17.067c-24.747-21.333-40.107-51.2-46.08-83.627l-12.8-69.973
		c-23.893,7.68-52.053,17.92-59.733,25.6c-18.773,17.92-64.853,285.013-85.333,384l59.733,8.533c0,0,38.4-212.48,44.373-230.4
		c5.973-17.92,23.893-59.733,23.893-59.733c9.387,26.453,17.067,64.853,17.067,102.4C169.499,281.6,135.366,422.4,135.366,494.933"
		/>
	<g>
		<path style="fill:#E4667F;" d="M254.833,392.533L254.833,392.533c-14.507,0-25.6-11.093-25.6-25.6v-17.067
			c0-14.507,11.093-25.6,25.6-25.6s25.6,11.093,25.6,25.6v17.067C280.433,381.44,269.339,392.533,254.833,392.533"/>
		<path style="fill:#E4667F;" d="M280.433,349.867v17.067c0,6.827-2.56,12.8-6.827,17.067h87.893
			c-3.413-17.92-6.827-35.84-10.24-51.2h-77.653C277.873,337.067,280.433,343.04,280.433,349.867"/>
		<path style="fill:#E4667F;" d="M229.233,366.933v-17.067c0-6.827,2.56-12.8,6.827-17.067h-77.653
			c-3.413,15.36-6.827,33.28-10.24,51.2h87.893C231.793,379.733,229.233,373.76,229.233,366.933"/>
	</g>
	<g>
		<path style="fill:#FFE100;" d="M228.379,204.8c8.533,7.68,17.92,13.653,26.453,17.067V179.2
			c-17.067-17.067-51.2-102.4-51.2-119.467l-8.533-42.667l-25.6,34.133l12.8,69.973C188.273,153.6,203.633,183.467,228.379,204.8"/>
		<path style="fill:#FFE100;" d="M281.286,204.8c-8.533,7.68-17.92,13.653-26.453,17.067V179.2
			c17.067-17.067,51.2-102.4,51.2-119.467l8.533-42.667l25.6,34.133l-12.8,69.973C321.393,153.6,306.033,183.467,281.286,204.8"/>
	</g>
	<g>
		<path style="fill:#FDCC00;" d="M314.566,17.067c-8.533-8.533-34.133-8.533-59.733-8.533c-25.6,0-51.2,0-59.733,8.533l8.533,42.667
			h51.2h51.2L314.566,17.067z"/>
		<path style="fill:#FDCC00;" d="M254.833,59.733h-51.2c0,17.067,34.133,102.4,51.2,119.467c17.067-17.067,51.2-102.4,51.2-119.467
			H254.833z"/>
	</g>
	<path style="fill:#FFA800;" d="M400.753,76.8c-7.68-7.68-35.84-17.92-59.733-25.6l-0.853,5.12
		c19.627,6.827,37.547,14.507,43.52,20.48c19.627,17.92,64.853,285.013,85.333,384l-42.667,5.973c0,1.707,0,2.56,0,2.56
		l59.733-8.533C465.606,361.813,420.379,94.72,400.753,76.8"/>
	<path style="fill:#FFFFFF;" d="M109.766,76.8c7.68-7.68,35.84-17.92,59.733-25.6l0.853,5.12
		c-18.773,6.827-37.547,14.507-43.52,20.48c-18.773,17.92-64.853,285.013-85.333,384l43.52,5.973
		c-0.853,1.707-0.853,2.56-0.853,2.56L24.433,460.8C44.913,361.813,90.993,94.72,109.766,76.8"/>
	<path d="M306.033,68.267h-102.4c-4.267,0-7.68-2.56-8.533-6.827l-8.533-42.667c-0.853-2.56,0-5.973,2.56-7.68
		C200.219,0,225.819,0,254.833,0c29.013,0,54.613,0,65.707,11.093c1.707,1.707,2.56,5.12,2.56,7.68l-8.533,42.667
		C313.713,65.707,310.299,68.267,306.033,68.267z M210.459,51.2h88.747l5.973-29.867c-10.24-4.267-33.28-4.267-50.347-4.267
		s-40.107,0-50.347,4.267L210.459,51.2z"/>
	<path d="M254.833,230.4c-0.853,0-2.56,0-3.413-0.853c-8.533-3.413-18.773-10.24-29.013-18.773
		c-25.6-22.187-42.667-53.76-48.64-88.747l-12.8-69.12c-0.853-2.56,0-5.12,1.707-6.827l25.6-34.133
		c1.707-2.56,5.12-4.267,8.533-3.413s5.973,3.413,6.827,6.827l8.533,42.667c0,0.853,0,0.853,0,1.707
		c0,13.653,33.28,98.133,48.64,113.493c1.707,1.707,2.56,3.413,2.56,5.973v42.667c0,2.56-1.707,5.12-3.413,6.827
		C258.246,229.547,256.539,230.4,254.833,230.4z M178.886,52.907l11.947,66.56c5.12,31.573,20.48,58.88,43.52,78.507
		c4.267,3.413,8.533,6.827,11.947,9.387v-25.6c-17.92-22.187-50.347-100.693-51.2-122.027l-4.267-23.04L178.886,52.907z"/>
	<path d="M254.833,230.4c-1.707,0-3.413-0.853-5.12-1.707c-1.707-1.707-3.413-4.267-3.413-6.827V179.2
		c0-2.56,0.853-4.267,2.56-5.973c15.36-15.36,48.64-99.84,48.64-113.493c0-0.853,0-0.853,0-1.707l8.533-42.667
		c0.853-3.413,3.413-5.973,6.827-6.827c3.413-0.853,6.827,0.853,8.533,3.413l25.6,34.133c1.707,1.707,1.707,4.267,1.707,6.827
		l-12.8,69.973c-5.973,34.987-23.04,66.56-48.64,88.747c-10.24,8.533-19.627,15.36-29.013,18.773
		C257.393,230.4,255.686,230.4,254.833,230.4z M263.366,182.613v25.6c4.267-2.56,7.68-5.973,11.947-9.387
		c22.187-19.627,37.547-46.933,43.52-78.507l11.947-66.56l-11.947-16.213l-4.267,23.04
		C313.713,81.92,281.286,160.427,263.366,182.613z"/>
	<path d="M254.833,187.733c-2.56,0-4.267-0.853-5.973-2.56c-17.92-17.92-53.76-104.96-53.76-125.44c0-5.12,3.413-8.533,8.533-8.533
		h102.4c5.12,0,8.533,3.413,8.533,8.533c0,20.48-35.84,107.52-53.76,125.44C259.099,186.88,257.393,187.733,254.833,187.733z
		 M213.873,68.267c5.973,22.187,26.453,74.24,40.96,97.28c14.507-22.187,34.987-74.24,40.96-97.28H213.873z"/>
	<path d="M152.433,187.733c-3.413,0-6.827-2.56-7.68-5.973c-6.827-19.627-15.36-32.427-15.36-32.427
		c-2.56-3.413-1.707-9.387,1.707-11.947c3.413-2.56,9.387-1.707,11.947,1.707c0,0.853,10.24,14.507,17.92,36.693
		c1.707,4.267-0.853,9.387-5.12,11.093C154.139,187.733,153.286,187.733,152.433,187.733z"/>
	<path d="M357.233,187.733c-0.853,0-1.707,0-2.56-0.853c-4.267-1.707-6.827-6.827-5.12-11.093c7.68-22.187,17.92-35.84,17.92-36.693
		c2.56-3.413,7.68-4.267,11.947-1.707c4.267,2.56,4.267,7.68,1.707,11.947c0,0-8.533,11.947-15.36,32.427
		C364.059,186.027,360.646,187.733,357.233,187.733z"/>
	<path d="M237.766,247.467c0-5.12-3.413-8.533-8.533-8.533c-5.12,0-8.533,3.413-8.533,8.533c0,5.12,3.413,8.533,8.533,8.533
		C234.353,256,237.766,251.733,237.766,247.467"/>
	<path d="M237.766,298.667c0-5.12-3.413-8.533-8.533-8.533c-5.12,0-8.533,3.413-8.533,8.533s3.413,8.533,8.533,8.533
		C234.353,307.2,237.766,302.933,237.766,298.667"/>
	<path d="M263.366,358.4c0-5.12-3.413-8.533-8.533-8.533c-5.12,0-8.533,3.413-8.533,8.533s3.413,8.533,8.533,8.533
		C259.953,366.933,263.366,362.667,263.366,358.4"/>
	<path d="M237.766,418.133c0-5.12-3.413-8.533-8.533-8.533c-5.12,0-8.533,3.413-8.533,8.533s3.413,8.533,8.533,8.533
		C234.353,426.667,237.766,422.4,237.766,418.133"/>
	<path d="M237.766,469.333c0-5.12-3.413-8.533-8.533-8.533c-5.12,0-8.533,3.413-8.533,8.533c0,5.12,3.413,8.533,8.533,8.533
		C234.353,477.867,237.766,473.6,237.766,469.333"/>
	<path d="M288.966,247.467c0-5.12-3.413-8.533-8.533-8.533c-5.12,0-8.533,3.413-8.533,8.533c0,5.12,3.413,8.533,8.533,8.533
		C285.553,256,288.966,251.733,288.966,247.467"/>
	<path d="M288.966,298.667c0-5.12-3.413-8.533-8.533-8.533c-5.12,0-8.533,3.413-8.533,8.533s3.413,8.533,8.533,8.533
		C285.553,307.2,288.966,302.933,288.966,298.667"/>
	<path d="M288.966,418.133c0-5.12-3.413-8.533-8.533-8.533c-5.12,0-8.533,3.413-8.533,8.533s3.413,8.533,8.533,8.533
		C285.553,426.667,288.966,422.4,288.966,418.133"/>
	<path d="M288.966,469.333c0-5.12-3.413-8.533-8.533-8.533c-5.12,0-8.533,3.413-8.533,8.533c0,5.12,3.413,8.533,8.533,8.533
		C285.553,477.867,288.966,473.6,288.966,469.333"/>
	<path d="M254.833,512c-59.733,0-120.32-8.533-120.32-8.533c-4.267-0.853-7.68-4.267-7.68-8.533
		c0-69.973,30.72-200.533,34.133-214.187c0-27.307-4.267-54.613-10.24-75.947c-5.12,12.8-11.093,28.16-14.507,36.693
		c-4.267,13.653-33.28,170.667-43.52,229.547c-0.853,4.267-5.12,7.68-9.387,6.827l-59.733-8.533c-2.56,0-4.267-1.707-5.973-3.413
		s-1.707-4.267-1.707-6.827c5.12-23.04,11.093-55.467,17.92-93.013c36.693-189.44,56.32-282.453,69.973-295.253
		c12.8-11.947,58.027-25.6,63.147-27.307c2.56-0.853,5.12-0.853,6.827,0c1.707,0.853,3.413,3.413,4.267,5.973l12.8,69.973
		c5.12,31.573,20.48,58.88,43.52,78.507c6.827,5.973,14.507,11.093,20.48,14.507c6.827-3.413,13.653-7.68,20.48-14.507
		c22.187-19.627,37.547-46.933,43.52-78.507l12.8-69.973c0.853-2.56,1.707-4.267,4.267-5.973c2.56-1.707,4.267-0.853,6.827-0.853
		c5.12,1.707,50.347,15.36,63.147,27.307c14.507,13.653,34.133,105.813,69.973,295.253c6.827,37.547,12.8,69.973,17.92,93.013
		c0.853,2.56,0,5.12-1.707,6.827c-1.707,1.707-3.413,3.413-5.973,3.413l-59.733,8.533c-4.267,0.853-8.533-2.56-9.387-6.827
		c-10.24-58.88-39.253-215.04-44.373-229.547c-2.56-8.533-9.387-23.893-14.507-36.693c-5.12,21.333-10.24,48.64-10.24,75.947
		c3.413,13.653,34.133,144.213,34.133,214.187c0,4.267-3.413,7.68-7.68,8.533C375.153,503.467,314.566,512,254.833,512z
		 M143.899,487.253c17.92,2.56,64.853,7.68,110.933,7.68s93.013-5.12,110.933-7.68c-2.56-72.533-33.28-202.24-34.133-203.947
		c0-0.853,0-1.707,0-1.707c0-40.107,9.387-81.067,17.92-104.96c0.853-3.413,4.267-5.973,7.68-5.973c3.413,0,6.827,1.707,8.533,5.12
		c0.853,1.707,17.92,42.667,23.893,60.587c5.12,16.213,34.987,180.907,43.52,223.573l42.667-5.973
		c-4.267-22.187-10.24-51.2-16.213-84.48c-19.627-101.547-52.053-272.213-64.853-286.72c-5.12-4.267-24.747-13.653-46.933-20.48
		l-11.093,60.587c-5.973,34.987-23.04,66.56-48.64,88.747c-10.24,8.533-19.627,15.36-29.013,18.773
		c-1.707,0.853-4.267,0.853-5.973,0c-8.533-3.413-18.773-10.24-29.013-18.773c-25.6-22.187-42.667-53.76-48.64-88.747
		l-11.093-60.587c-22.187,7.68-41.813,16.213-46.933,20.48c-12.8,14.507-45.227,184.32-64.853,286.72
		c-5.973,33.28-11.947,61.44-16.213,84.48l42.667,5.973c7.68-42.667,37.547-207.36,43.52-223.573
		c5.973-17.92,23.04-58.88,23.893-60.587c1.707-3.413,4.267-5.12,8.533-5.12c3.413,0,6.827,2.56,7.68,5.973
		c8.533,23.893,17.92,64.853,17.92,104.96c0,0.853,0,1.707,0,1.707C177.179,285.013,146.459,415.573,143.899,487.253z"/>
	<path d="M254.833,401.067c-18.773,0-34.133-15.36-34.133-34.133v-17.067c0-18.773,15.36-34.133,34.133-34.133
		c18.773,0,34.133,15.36,34.133,34.133v17.067C288.966,385.707,273.606,401.067,254.833,401.067z M254.833,332.8
		c-9.387,0-17.067,7.68-17.067,17.067v17.067c0,9.387,7.68,17.067,17.067,17.067c9.387,0,17.067-7.68,17.067-17.067v-17.067
		C271.899,340.48,264.219,332.8,254.833,332.8z"/>
	<path d="M361.499,392.533h-87.893c-3.413,0-6.827-1.707-7.68-5.12c-1.707-3.413-0.853-6.827,1.707-9.387
		c1.707-2.56,4.267-5.973,4.267-11.093v-17.067c0-5.12-2.56-9.387-4.267-11.093c-2.56-2.56-2.56-5.973-1.707-9.387
		c1.707-3.413,4.267-5.12,7.68-5.12h77.653c4.267,0,7.68,2.56,8.533,6.827c3.413,17.92,6.827,34.987,10.24,51.2
		c0.853,2.56,0,5.12-1.707,6.827C366.619,391.68,364.059,392.533,361.499,392.533z M288.113,375.467h63.147
		c-1.707-11.093-4.267-22.187-6.827-34.133h-56.32c0.853,2.56,0.853,5.973,0.853,8.533v17.067
		C288.966,369.493,288.966,372.907,288.113,375.467z"/>
	<path d="M236.059,392.533h-87.893c-2.56,0-5.12-0.853-6.827-3.413c-1.707-1.707-2.56-4.267-1.707-6.827
		c2.56-16.213,5.973-33.28,10.24-51.2c0.853-4.267,4.267-6.827,8.533-6.827h77.653c3.413,0,6.827,1.707,7.68,5.12
		c1.707,3.413,0.853,6.827-1.707,9.387c-1.707,1.707-4.267,5.973-4.267,11.093v17.067c0,5.12,2.56,9.387,4.267,11.093
		c2.56,2.56,2.56,5.973,1.707,9.387C242.033,390.827,239.473,392.533,236.059,392.533z M158.406,375.467h63.147
		c-0.853-2.56-0.853-5.973-0.853-8.533v-17.067c0-2.56,0-5.973,0.853-8.533h-56.32C162.673,353.28,160.113,364.373,158.406,375.467z
		"/>
</g>
<g>
</g>
<g>
</g>
<g>
</g>
<g>
</g>
<g>
</g>
<g>
</g>
<g>
</g>
<g>
</g>
<g>
</g>
<g>
</g>
<g>
</g>
<g>
</g>
<g>
</g>
<g>
</g>
<g>
</g>
</svg>
