<?xml version="1.0" encoding="iso-8859-1"?>
<!-- Generator: Adobe Illustrator 19.0.0, SVG Export Plug-In . SVG Version: 6.00 Build 0)  -->
<svg version="1.1" id="Layer_1" xmlns="http://www.w3.org/2000/svg" xmlns:xlink="http://www.w3.org/1999/xlink" x="0px" y="0px"
	 viewBox="0 0 511.999 511.999" style="enable-background:new 0 0 511.999 511.999;" xml:space="preserve">
<path style="fill:#AA2300;" d="M362.283,126.938c-3.153-3.779-7.82-5.964-12.741-5.964H16.593c-4.92,0-9.589,2.185-12.741,5.964
	c-3.153,3.779-4.466,8.761-3.583,13.603l29.206,160.368c1.436,7.888,8.306,13.621,16.324,13.621h274.537
	c8.018,0,14.888-5.732,16.324-13.621l29.206-160.368C366.749,135.699,365.436,130.717,362.283,126.938z"/>
<g>
	<path style="fill:#891C00;" d="M362.283,126.938c-3.153-3.779-7.82-5.964-12.741-5.964H183.067v193.554h137.268
		c8.018,0,14.888-5.732,16.324-13.621l29.206-160.368C366.749,135.699,365.436,130.717,362.283,126.938z"/>
	<path style="fill:#891C00;" d="M385.102,321.702H37.231c-9.164,0-16.593-7.429-16.593-16.593c0-9.164,7.429-16.593,16.593-16.593
		h347.871c9.164,0,16.593,7.429,16.593,16.593C401.695,314.273,394.265,321.702,385.102,321.702z"/>
</g>
<g>
	<path style="fill:#3D3C40;" d="M315.147,495.492c-28.115,0-50.988-22.874-50.988-50.989s22.873-50.988,50.988-50.988
		c28.115,0,50.989,22.873,50.989,50.988S343.262,495.492,315.147,495.492z M315.147,426.701c-9.816,0-17.802,7.986-17.802,17.802
		s7.986,17.803,17.802,17.803s17.803-7.987,17.803-17.803S324.963,426.701,315.147,426.701z"/>
	<path style="fill:#3D3C40;" d="M142.499,495.492c-28.115,0-50.989-22.874-50.989-50.989s22.874-50.988,50.989-50.988
		s50.989,22.873,50.989,50.988S170.614,495.492,142.499,495.492z M142.499,426.701c-9.816,0-17.803,7.986-17.803,17.802
		s7.987,17.803,17.803,17.803c9.816,0,17.803-7.987,17.803-17.803S152.315,426.701,142.499,426.701z"/>
</g>
<path style="fill:#57565C;" d="M373.389,394.621H84.008c-12.219,0-22.124-9.905-22.124-22.124c0-12.219,9.905-22.124,22.124-22.124
	h270.808l55.485-315.572c1.861-10.579,11.049-18.293,21.79-18.293h57.785c12.219,0,22.124,9.905,22.124,22.124
	s-9.905,22.124-22.124,22.124h-39.211l-55.485,315.573C393.319,386.907,384.129,394.621,373.389,394.621z"/>
<g>
</g>
<g>
</g>
<g>
</g>
<g>
</g>
<g>
</g>
<g>
</g>
<g>
</g>
<g>
</g>
<g>
</g>
<g>
</g>
<g>
</g>
<g>
</g>
<g>
</g>
<g>
</g>
<g>
</g>
</svg>
